<?xml version="1.0" standalone="no"?><!DOCTYPE svg PUBLIC "-//W3C//DTD SVG 1.1//EN" "http://www.w3.org/Graphics/SVG/1.1/DTD/svg11.dtd"><svg width="200" height="200" viewBox="0 0 200 200" version="1.1" xmlns="http://www.w3.org/2000/svg" xmlns:xlink="http://www.w3.org/1999/xlink"><defs><style type="text/css"><![CDATA[
@font-face { font-family: ifont; src: url("http://at.alicdn.com/t/font_1442373896_4754455.eot?#iefix") format("embedded-opentype"), url("http://at.alicdn.com/t/font_1442373896_4754455.woff") format("woff"), url("http://at.alicdn.com/t/font_1442373896_4754455.ttf") format("truetype"), url("http://at.alicdn.com/t/font_1442373896_4754455.svg#ifont") format("svg"); }

]]></style></defs><g class="transform-group"><g transform="scale(0.1953125, 0.1953125)"><path d="M468.2752 33.0752l-307.2 307.2c-9.984 9.984-9.984 26.2144 0 36.1984s26.2144 9.984 36.1984 0l263.4752-263.4752 0 834.2016c0 14.1312 11.4688 25.6 25.6 25.6s25.6-11.4688 25.6-25.6l0-834.2016 263.4752 263.4752c9.984 9.984 26.2144 9.984 36.1984 0 5.0176-5.0176 7.4752-11.5712 7.4752-18.1248s-2.5088-13.1072-7.4752-18.1248l-307.2-307.2c-9.984-9.984-26.2144-9.984-36.1984 0z" fill="#ffffff"></path></g></g></svg>