<?xml version="1.0" standalone="no"?><!DOCTYPE svg PUBLIC "-//W3C//DTD SVG 1.1//EN" "http://www.w3.org/Graphics/SVG/1.1/DTD/svg11.dtd"><svg width="201.3671875" height="200" viewBox="0 0 201.3671875 200" version="1.1" xmlns="http://www.w3.org/2000/svg" xmlns:xlink="http://www.w3.org/1999/xlink"><defs><style type="text/css"><![CDATA[
@font-face { font-family: ifont; src: url("http://at.alicdn.com/t/font_1442373896_4754455.eot?#iefix") format("embedded-opentype"), url("http://at.alicdn.com/t/font_1442373896_4754455.woff") format("woff"), url("http://at.alicdn.com/t/font_1442373896_4754455.ttf") format("truetype"), url("http://at.alicdn.com/t/font_1442373896_4754455.svg#ifont") format("svg"); }

]]></style></defs><g class="transform-group"><g transform="scale(0.1953125, 0.1953125)"><path d="M1015.645728 753.080707l14.431687 15.422248M1015.645728 753.080707l14.431687 15.422248M1015.645728 753.080707l14.431687 15.422248M723.552184 487.22064 338.204745 75.389014c-10.327206-10.354835-27.094078-10.354835-37.435611 0-10.355859 10.341532-10.355859 27.082822 0 37.436634l373.34815 398.995273L300.769135 910.804938c-10.355859 10.368138-10.355859 27.095102 0 37.435611 10.341532 10.368138 27.108405 10.368138 37.435611 0L723.603349 536.384363c6.670933-6.698562 8.582469-15.993253 6.619768-24.589025C732.184795 503.250732 730.273259 493.916133 723.552184 487.22064z" fill="#999999"></path></g></g></svg>